<svg id="图层_1" data-name="图层 1" xmlns="http://www.w3.org/2000/svg" viewBox="0 0 1307.83 363.37"><defs><style>.cls-1{fill:#231815;fill-rule:evenodd;}</style></defs><title>定稿九亩花田（LOGO源文件AI）</title><path class="cls-1" d="M-306.06,278.37l-6,199.58-.1,3.3-3.21-.72L-326,478.16l-2.21-.49.07-2.25,6-197h-34.23V262.29h35l.19-17.93,0-3.37,3.27.73,10.67,2.38,2.16.48,0,2.21-.18,15.5h171.8V460.07h29.34V420.85H-90.4v53h-59.18V278.37Zm700.51-10H557.2V254.05h16.08v14.31h30.9v16.08h-30.9V300H557.2v-15.6H388v16.9H371.88v-16.9h-34V268.36h34V254.05H388v14.31h6.49ZM131.32,460.22H239.54v-93H131.32v93ZM6.7,367.21v93H115.23v-93Zm108.53-55.49H6.7v39.41H115.23V311.72Zm124.31,39.41V311.72H131.32v39.41Zm17.3-52.75V474H-9.38V295.64H256.84v2.74Zm112,40.72-25-3.24-1.7-.22-.54-1.63L338,323.4,336.89,320l3.56-.21L382,317.41l2.89-.17V473.93H368.83V339.1Zm224.29,5.72-53.67,2.3V459H604v15h-80.6V348.65l-22.22,1.86-2.63.22-.3-2.64L497,337.42l-.31-2.79,2.81-.23,23.87-1.91V307.85h16.08v22l52.29-2.29,2.57-.12.26,2.57,1.16,11.83.28,2.87-2.89.12ZM685.2,471.25V254.1H951.41V474H685.2v-2.73ZM824.68,342.34V460.22H934.12V342.34Zm-123.4,0V460.22h106.1V342.34Zm123.4-72.16v56.08H934.12V270.18Zm-123.4,0v56.08h106.1V270.18Z" transform="translate(356.41 -239.82)"/><path class="cls-1" d="M-318,543.75h6.7v36.69c0,7.11-1.9,12.75-5.34,16.65s-8.56,6.09-14.81,6.09a46.42,46.42,0,0,1-9.22-.9,69,69,0,0,1-9.64-2.73l-.58-.21.15-.59,1.25-5.26.17-.72.7.22a75.72,75.72,0,0,0,9.2,2.38,42.84,42.84,0,0,0,8,.76,11.61,11.61,0,0,0,9.37-4.06c2.19-2.64,3.4-6.54,3.4-11.54V543.75Zm80.06,0h6.61v58.18h-7.3V543.75Zm123.08,0h6.61v34.69c0,7.5-2.49,13.66-6.86,18s-10.69,6.77-18.22,6.77-13.76-2.43-18.15-6.78-6.84-10.46-6.84-18V543.75h7.3v34.69c0,5.46,1.74,9.92,4.8,13s7.54,4.86,12.89,4.86,9.86-1.74,13-4.85,4.82-7.54,4.82-13V543.75Zm136.6,57.54-2.51-41.2L-.23,601.53l-.19.4H-6.63l-.18-.39-19.58-41.45-2.43,41.2,0,.64h-7.22l0-.72,3.34-56.81,0-.65h6.76l.18.4,22.19,48.36,22.18-48.36.19-.4h6.76l0,.65L29,601.21l0,.72H21.82l0-.64Zm122.84-57.54h6.61v34.69c0,7.5-2.49,13.66-6.85,18s-10.69,6.77-18.22,6.77-13.77-2.43-18.16-6.78-6.84-10.46-6.84-18V543.75h7.3v34.69c0,5.46,1.75,9.92,4.8,13s7.54,4.86,12.9,4.86,9.85-1.74,13-4.85,4.82-7.54,4.82-13V543.75Zm126.94.69v57.49h-7.3v-25.4h-33v25.4h-7.3V543.75h7.3v26h33v-26h7.3v.69ZM388,543.75h6.62v34.69c0,7.5-2.5,13.66-6.86,18s-10.69,6.77-18.22,6.77-13.77-2.43-18.16-6.78-6.84-10.46-6.84-18V543.75h7.3v34.69c0,5.46,1.75,9.92,4.81,13s7.53,4.86,12.89,4.86,9.86-1.74,13-4.85,4.82-7.54,4.82-13V543.75Zm117.12,44.31H474.28l-5.91,13.46-.18.41H460l.43-1,25.82-57.23.18-.4H493l.19.4L519,601l.44,1h-8.1l-.18-.41-6-13.46Zm-3-6.71-12.4-28.05-12.48,28.05Zm123.46-30.8H603.78v51.38h-7.29V550.55H574v-6.8h52.25v6.8Zm66.36-6.8h6.61v58.18h-7.3V543.75Zm120,44.31H781l-5.92,13.46-.18.41h-8.18l.43-1L793,543.74l.18-.4h6.56l.18.4L825.74,601l.43,1h-8.1l-.18-.41-6-13.46Zm-3-6.71-12.4-28.05L784,581.35Zm128.81-37.6h6.61v58.18h-7l-.2-.26-35.37-45.55v45.81h-7.3V543.75h6.78l.2.27L937,589.74v-46Z" transform="translate(356.41 -239.82)"/><polygon class="cls-1" points="347.04 36.88 347.04 26.27 347.04 23.53 349.77 23.53 472.46 23.53 463.67 11.22 462.08 9 464.31 7.42 472.65 1.5 474.77 0 476.38 2.04 493.29 23.53 610.52 23.53 613.25 23.53 613.25 26.27 613.25 36.88 613.25 39.61 610.52 39.61 349.77 39.61 347.04 39.61 347.04 36.88"/></svg>